<svg version="1.1" id="Layer_1" xmlns="http://www.w3.org/2000/svg" xmlns:xlink="http://www.w3.org/1999/xlink" x="0px" y="0px"
	 width="100%" viewBox="0 0 416 224" enable-background="new 0 0 416 224" xml:space="preserve">
<path fill="#000000" opacity="1.000000" stroke="none" 
	d="
M154.818802,146.233475 
	C154.028198,154.350922 152.004272,161.892120 150.549454,169.853424 
	C155.395782,170.515503 157.314117,172.790359 154.854095,177.879532 
	C148.447708,175.016235 147.014847,179.794785 145.106644,184.475204 
	C142.454803,190.979706 138.832245,196.977692 134.127975,202.253113 
	C123.996071,213.615204 110.011971,213.616989 99.876266,202.247803 
	C94.474388,196.188553 90.717575,189.101288 88.014679,181.553360 
	C86.620728,177.660721 84.700737,177.035202 80.921707,177.692123 
	C72.540329,179.149109 64.075378,179.325745 55.729919,177.197922 
	C44.598392,174.359741 37.748352,165.548553 38.888622,155.610519 
	C38.978184,154.829956 39.381702,154.085403 39.690586,153.172562 
	C43.827343,153.093979 46.270283,154.081467 46.410122,158.934738 
	C46.588741,165.133896 51.082714,168.199997 56.444824,169.987793 
	C64.588936,172.703171 72.864677,171.915741 81.134056,170.597778 
	C83.638878,170.198547 83.842117,168.480713 83.474037,166.493179 
	C82.355507,160.453491 81.217407,154.417252 80.047127,148.387405 
	C79.765862,146.938202 79.696815,145.374741 78.403748,144.313919 
	C72.502769,139.472885 66.605499,134.627335 60.773804,129.838333 
	C58.980537,130.168427 58.174370,131.546082 57.232475,132.647034 
	C55.517475,134.651627 53.878609,134.340546 52.058922,132.870041 
	C50.214546,131.379608 50.163731,129.588074 51.753315,128.163376 
	C55.682861,124.641426 54.172611,121.931602 51.290455,118.557762 
	C46.736622,113.227028 43.077461,107.212936 40.756416,100.525826 
	C34.757034,83.241203 43.477436,70.060432 61.699997,68.688141 
	C68.345329,68.187706 74.956345,68.147430 81.512772,69.513962 
	C84.816895,70.202629 86.592155,69.071571 87.828842,65.724220 
	C91.072319,56.945114 95.641037,48.937763 102.472466,42.288597 
	C107.925667,36.980885 120.398369,33.714844 125.895172,39.258537 
	C124.315247,42.272194 122.591713,44.491356 118.365471,43.482029 
	C114.757492,42.620361 111.509384,44.294193 108.617691,46.432625 
	C102.357124,51.062366 95.230789,63.151230 93.875557,71.658821 
	C101.103119,74.281174 108.404083,76.959457 115.730438,79.566399 
	C117.421158,80.167999 118.983170,79.326408 120.551994,78.760612 
	C125.406273,77.009949 130.271698,75.290092 135.137711,73.572144 
	C137.727829,72.657692 140.789337,72.472267 140.017044,68.167091 
	C139.693756,66.364853 142.100159,65.854057 143.592255,65.214485 
	C145.256393,64.501167 146.170776,65.592644 146.629028,66.915817 
	C147.867508,70.491768 150.573013,69.739258 153.228577,69.352089 
	C161.491318,68.147385 169.751419,67.704712 177.959274,69.742241 
	C191.771774,73.171074 197.995285,83.607719 194.353531,97.310600 
	C192.127716,105.685699 187.744019,112.974091 182.126389,119.416130 
	C179.357941,122.590881 179.414551,124.640289 182.077728,127.865700 
	C188.276642,135.373322 193.160843,143.692627 194.849197,153.510590 
	C196.251755,161.666504 193.605804,168.273666 186.996689,173.215912 
	C185.663605,174.212784 183.883118,176.255692 182.370911,173.979279 
	C181.290466,172.352814 180.220383,169.756470 182.408447,168.070114 
	C191.383026,161.153336 188.856705,153.004868 185.028061,144.773727 
	C182.416245,139.158615 178.768982,134.211670 174.040283,129.165192 
	C167.602325,134.813278 161.294785,140.346939 154.818802,146.233475 
M89.159256,103.794762 
	C87.401596,104.966896 86.471382,106.487335 86.257042,108.709846 
	C85.297043,118.663994 85.776756,128.599045 86.309761,138.543762 
	C86.408615,140.388229 87.206139,141.647583 88.685051,142.654266 
	C96.945625,148.277176 105.512733,153.356628 114.555763,157.636810 
	C116.424965,158.521530 117.954750,158.334259 119.726692,157.470108 
	C128.411743,153.234558 136.737396,148.392593 144.782547,143.046310 
	C146.572845,141.856583 147.547241,140.476273 147.768463,138.234421 
	C148.750916,128.278137 149.028931,118.346870 147.739288,108.391403 
	C147.507156,106.599419 146.975555,105.297661 145.464493,104.250313 
	C137.384354,98.649788 128.930084,93.702980 120.088898,89.404976 
	C117.810394,88.297310 115.760826,88.433655 113.471024,89.600166 
	C105.312469,93.756424 97.369637,98.265427 89.159256,103.794762 
M138.859283,180.527100 
	C139.400940,178.987808 140.320908,177.540207 139.985275,175.419708 
	C133.796066,173.133102 127.469261,170.769058 121.118797,168.470322 
	C119.731445,167.968140 118.049561,167.046204 116.860802,167.428680 
	C109.053642,169.940598 101.344490,172.757187 93.372345,175.555450 
	C96.263046,184.327515 99.712624,191.993469 105.759583,198.185089 
	C113.249245,205.853912 121.361519,205.664520 128.616501,197.764359 
	C133.056000,192.930054 136.059372,187.202484 138.859283,180.527100 
M154.046677,76.347343 
	C151.131241,76.666298 150.081909,77.982460 150.780655,81.080727 
	C152.130966,87.068275 153.125885,93.136681 154.228104,99.178879 
	C154.437042,100.324287 154.375565,101.577118 155.349823,102.394257 
	C161.421646,107.486839 167.518845,112.549149 173.831619,117.808090 
	C180.133102,111.000458 185.057373,103.952209 187.362274,95.437454 
	C190.040985,85.541740 185.258469,78.369041 175.198364,76.364861 
	C168.413330,75.013138 161.655670,75.004967 154.046677,76.347343 
M46.021591,90.539772 
	C46.763680,101.670227 53.159527,109.717361 59.904430,117.698105 
	C66.211075,112.572433 71.869202,107.951164 77.558151,103.368179 
	C78.787407,102.377892 79.455940,101.230461 79.729324,99.627022 
	C80.816841,93.248772 81.969078,86.878380 83.281105,80.543137 
	C83.814514,77.967545 82.954613,76.742188 80.474678,76.388084 
	C73.203522,75.349861 65.947350,74.734062 58.661560,76.385986 
	C50.834908,78.160561 46.792004,82.334694 46.021591,90.539772 
M68.230370,120.529648 
	C67.307518,121.884048 64.702911,122.919617 66.693901,124.966377 
	C70.054184,128.420746 73.289665,132.142197 78.107956,134.152527 
	C78.107956,126.784882 78.107956,119.885208 78.107956,112.552284 
	C74.132042,114.762604 71.456902,117.456886 68.230370,120.529648 
M133.046768,165.524399 
	C134.643356,165.988861 136.304260,166.301910 137.823929,166.947479 
	C141.678116,168.584778 143.764069,167.529144 144.355804,163.275787 
	C144.899261,159.369370 145.729034,155.502762 146.565994,150.882751 
	C139.619736,154.983963 133.329254,158.697998 126.328270,162.831528 
	C128.997452,163.913864 130.667053,164.590881 133.046768,165.524399 
M159.443848,114.995148 
	C157.396164,113.952583 155.586487,114.235168 155.489136,116.746422 
	C155.268173,122.446365 155.419525,128.160736 155.419525,133.793884 
	C157.829529,134.097733 158.698090,132.696381 159.796402,131.792114 
	C169.688049,123.648056 169.681503,123.640099 159.443848,114.995148 
M98.899574,166.342819 
	C101.448792,165.050980 104.639786,165.073013 107.156082,162.618469 
	C100.566719,158.845215 94.412132,155.320923 87.833534,151.553833 
	C88.312996,157.505829 89.257156,162.783508 91.090401,167.823151 
	C93.814651,168.293121 95.891968,166.896805 98.899574,166.342819 
M127.471130,83.817612 
	C132.186218,89.464211 139.114944,91.324104 145.525986,95.356400 
	C146.028854,89.907265 144.420837,85.851883 143.463181,81.712997 
	C142.939331,79.449028 141.257797,79.000031 139.210541,79.674309 
	C135.441879,80.915527 131.683914,82.189201 127.471130,83.817612 
M89.859428,94.613960 
	C95.487839,91.233612 101.116249,87.853271 106.861992,84.402458 
	C105.344116,82.647362 103.474602,82.375320 101.817413,81.821632 
	C90.440529,78.020531 90.693726,76.629898 88.451591,90.654167 
	C88.264030,91.827400 86.332497,94.086243 89.859428,94.613960 
z"/>
<path fill="#000000" opacity="1.000000" stroke="none" 
	d="
M244.483978,133.477661 
	C240.148163,127.025856 236.312378,120.646690 229.963379,114.037163 
	C229.963379,118.043045 229.960632,120.616539 229.963959,123.190033 
	C229.970627,128.348175 230.005066,133.506409 229.983337,138.664413 
	C229.953033,145.858521 226.116730,148.487030 219.265945,146.155731 
	C217.198639,145.452255 217.060410,143.836945 217.055862,142.176941 
	C217.015808,127.533958 216.996765,112.890762 217.045486,98.247887 
	C217.051270,96.508194 216.813187,94.052376 219.283646,93.905563 
	C222.798599,93.696663 226.607407,92.482216 229.636673,95.681038 
	C235.376923,101.742584 240.224350,108.500854 245.093689,115.246071 
	C246.349091,116.985100 247.627350,118.707619 250.065918,120.305283 
	C250.065918,113.783432 250.064102,107.261589 250.066452,100.739738 
	C250.068726,94.413513 255.643967,91.055260 261.294495,93.972633 
	C263.147888,94.929550 262.954102,96.715645 262.955963,98.332642 
	C262.972046,112.476540 262.982086,126.620758 262.885376,140.764145 
	C262.871613,142.778275 263.425079,145.745468 260.490082,146.024994 
	C257.238861,146.334641 253.381241,147.822922 250.938263,143.987610 
	C248.794601,140.622208 246.763519,137.185104 244.483978,133.477661 
z"/>
<path fill="#000000" opacity="1.000000" stroke="none" 
	d="
M369.488342,143.142578 
	C364.597321,132.179794 359.950958,121.506454 356.698334,110.289177 
	C356.382202,109.198898 356.194153,108.071472 355.956146,107.003883 
	C363.906860,103.620575 367.813171,105.274132 370.146057,112.740784 
	C371.826263,118.118568 373.598694,123.467545 375.697632,129.967972 
	C378.692780,124.320328 379.765808,119.226349 381.149689,114.265457 
	C383.818726,104.697342 384.309052,104.374504 394.724701,106.285233 
	C395.588013,107.315910 395.294403,108.473373 394.946350,109.572388 
	C390.576416,123.371323 385.987091,137.097748 379.302948,149.988968 
	C374.818146,158.638550 368.109192,161.476425 359.027130,159.456192 
	C355.536224,158.679672 355.155518,156.686752 355.885376,154.013779 
	C356.558685,151.548096 356.226501,148.032486 360.924957,149.251007 
	C365.567719,150.455124 368.657288,148.389954 369.488342,143.142578 
z"/>
<path fill="#000000" opacity="1.000000" stroke="none" 
	d="
M294.660461,137.942749 
	C294.662018,126.291824 294.580139,115.131027 294.688019,103.972061 
	C294.815460,90.789932 307.907867,82.832451 319.897919,88.378616 
	C323.303802,89.954056 321.576904,92.194611 321.248932,94.259056 
	C320.855072,96.738335 319.851990,98.887825 316.703979,98.183174 
	C314.379944,97.662956 312.132446,97.303780 309.911438,98.490784 
	C307.931824,99.548782 306.974762,101.224800 307.220703,103.418114 
	C307.521515,106.100952 309.715179,105.571922 311.468445,105.673042 
	C312.464661,105.730492 313.466766,105.680481 314.466064,105.692085 
	C319.767670,105.753639 322.312164,109.775085 320.033905,114.507240 
	C318.874756,116.914940 316.605530,116.126328 314.742096,116.175217 
	C306.939575,116.379921 306.943573,116.333344 306.946350,124.272209 
	C306.948212,129.602310 306.716919,134.943405 306.988098,140.259277 
	C307.237488,145.146942 305.174866,146.456467 300.501068,146.452194 
	C295.904633,146.447998 294.013000,144.984039 294.650482,140.430649 
	C294.741913,139.777313 294.661743,139.099945 294.660461,137.942749 
z"/>
<path fill="#000000" opacity="1.000000" stroke="none" 
	d="
M350.951355,107.303711 
	C351.634369,116.067825 351.631378,116.259514 343.484528,116.132927 
	C339.404327,116.069519 337.610168,117.409828 337.941467,121.556976 
	C338.126678,123.875008 337.890564,126.223587 337.990601,128.552109 
	C338.302948,135.822937 340.229279,137.369888 347.344757,136.232315 
	C348.309387,136.078094 349.294373,136.051346 350.207458,135.971069 
	C354.038727,143.778656 353.113434,145.601578 344.780823,146.978073 
	C333.985565,148.761398 326.115204,142.753418 325.778381,131.919479 
	C325.447113,121.264481 325.729401,110.591309 325.674896,99.926460 
	C325.642212,93.531937 330.970886,95.697678 334.093475,94.861176 
	C337.743805,93.883316 338.171112,96.895500 337.868805,99.529419 
	C337.256683,104.862679 339.833344,106.240776 344.621796,105.764206 
	C346.666229,105.560745 348.992706,105.087654 350.951355,107.303711 
z"/>
<path fill="#000000" opacity="1.000000" stroke="none" 
	d="
M280.861328,146.300110 
	C272.815369,146.275040 272.803955,146.275055 272.791260,138.580627 
	C272.776184,129.436401 273.036346,120.282326 272.682007,111.151741 
	C272.481842,105.993568 275.101349,105.594002 279.114960,105.608612 
	C282.946198,105.622559 285.449829,106.026802 285.313538,110.898712 
	C285.030060,121.032784 285.203583,131.179947 285.213959,141.321716 
	C285.216705,144.028259 284.940186,146.446899 280.861328,146.300110 
z"/>
<path fill="#000000" opacity="1.000000" stroke="none" 
	d="
M124.538330,58.121582 
	C122.044563,51.218536 122.966713,46.183781 127.076881,42.835762 
	C131.406738,39.308792 136.818329,38.836029 141.480087,41.577450 
	C145.991974,44.230743 148.220398,49.164135 147.230499,54.850700 
	C146.410919,59.558868 143.347336,62.520744 138.959259,63.949253 
	C133.484955,65.731384 128.889816,63.833210 124.538330,58.121582 
z"/>
<path fill="#000000" opacity="1.000000" stroke="none" 
	d="
M159.976944,180.606171 
	C157.140488,172.839539 159.591385,167.298477 166.374908,165.319962 
	C171.926804,163.700699 177.535126,167.443848 178.799789,173.612717 
	C179.633682,177.680435 177.241364,182.418045 173.380676,184.344391 
	C168.848160,186.605927 164.298859,185.437286 159.976944,180.606171 
z"/>
<path fill="#000000" opacity="1.000000" stroke="none" 
	d="
M52.425407,148.470367 
	C48.897415,151.733429 45.343273,152.011642 41.754623,149.555450 
	C38.779476,147.519150 37.410049,144.571716 38.296978,140.950653 
	C39.108231,137.638565 41.149391,135.325729 44.644176,134.782501 
	C48.127354,134.241058 51.392887,134.936752 53.374962,138.110321 
	C55.497524,141.508835 55.421982,144.999435 52.425407,148.470367 
z"/>
<path fill="#000000" opacity="1.000000" stroke="none" 
	d="
M277.429382,101.976105 
	C272.150787,98.989235 270.605652,95.086128 272.901703,91.402039 
	C275.010437,88.018463 279.519073,86.971764 282.894012,89.162788 
	C285.515289,90.864540 286.804871,93.377647 285.967743,96.405998 
	C284.865814,100.392250 282.077271,102.409492 277.429382,101.976105 
z"/>
<path fill="#000000" opacity="1.000000" stroke="none" 
	d="
M101.698608,123.947174 
	C102.518990,115.748123 106.203995,110.654907 112.545128,108.964127 
	C118.886467,107.273277 124.391106,108.821030 128.753372,113.853233 
	C132.756546,118.471184 133.432175,124.980499 130.556427,130.656693 
	C127.732994,136.229645 121.152626,139.709610 115.260048,138.746094 
	C107.464371,137.471375 103.118973,132.864731 101.698608,123.947174 
z"/>
</svg>